<?xml version="1.0" standalone="no"?>
<!DOCTYPE svg PUBLIC "-//W3C//DTD SVG 20010904//EN"
 "http://www.w3.org/TR/2001/REC-SVG-20010904/DTD/svg10.dtd">
<svg version="1.0" xmlns="http://www.w3.org/2000/svg"
 width="700.000000pt" height="700.000000pt" viewBox="0 0 700.000000 700.000000"
 preserveAspectRatio="xMidYMid meet">
<metadata>
Created by potrace 1.14, written by Peter Selinger 2001-2017
</metadata>
<g transform="translate(0.000000,700.000000) scale(0.100000,-0.100000)"
fill="#000000" stroke="none">
<path d="M4335 5923 c-206 -37 -446 -84 -500 -99 -33 -8 -78 -20 -100 -25
-190 -47 -634 -206 -643 -230 -2 -5 -12 -9 -22 -9 -10 0 -22 -5 -25 -10 -3 -6
-26 -19 -51 -30 -24 -11 -44 -25 -44 -30 0 -6 -9 -10 -20 -10 -13 0 -18 -5
-14 -15 7 -16 44 -21 44 -6 0 6 8 9 18 9 9 -1 40 9 67 22 28 12 66 29 85 37
19 9 53 24 74 34 22 11 43 19 47 19 4 0 43 17 86 37 74 36 84 38 213 44 125 6
173 12 320 39 30 6 82 13 115 15 l60 5 -45 -15 c-25 -9 -63 -20 -85 -25 -80
-18 -231 -61 -349 -99 -145 -47 -325 -130 -284 -130 15 -1 30 4 34 10 3 6 18
9 32 6 24 -5 91 11 150 34 13 5 35 9 50 9 16 0 32 4 37 9 13 11 115 21 115 11
0 -4 -12 -11 -26 -14 -48 -12 -19 -28 61 -32 44 -2 179 0 300 5 280 11 292 8
377 -93 184 -221 352 -530 437 -801 49 -157 103 -445 84 -445 -5 0 -41 16 -80
35 -39 19 -76 35 -82 35 -6 0 -19 4 -29 9 -27 16 -112 39 -177 50 -287 47
-573 -2 -870 -150 -342 -170 -609 -379 -840 -657 -200 -241 -349 -492 -437
-737 -22 -60 -42 -119 -45 -130 -2 -11 -8 -29 -13 -40 -11 -27 -32 -129 -37
-185 -3 -25 -10 -50 -15 -57 -5 -7 -13 -41 -16 -77 l-7 -66 -125 51 c-367 147
-721 401 -970 694 -64 76 -72 89 -67 118 8 53 34 161 47 192 41 102 71 185 74
210 2 17 6 37 9 45 3 8 7 24 10 35 3 11 8 29 12 40 4 11 -15 -18 -41 -65 -56
-102 -53 -98 -63 -81 -5 8 -17 11 -30 6 -18 -5 -21 -2 -21 19 0 15 4 34 9 44
5 9 14 31 21 47 7 17 16 38 21 47 10 20 31 149 25 155 -2 2 -14 -11 -27 -29
-12 -18 -39 -49 -60 -68 -60 -58 -137 -196 -266 -480 -76 -166 -135 -355 -133
-423 0 -15 -6 -41 -15 -57 -8 -16 -15 -42 -15 -59 0 -16 -4 -33 -10 -36 -5 -3
-10 -25 -10 -47 0 -23 -6 -67 -14 -97 -24 -96 -36 -248 -36 -466 0 -188 3
-228 29 -375 28 -156 40 -201 91 -345 29 -82 147 -313 179 -351 14 -17 44 -54
66 -83 97 -126 321 -274 454 -302 31 -6 62 -16 69 -22 19 -15 385 -15 442 0
25 7 72 19 105 27 208 51 374 144 546 306 42 40 125 163 169 250 75 149 95
242 94 430 0 102 -7 184 -18 240 -44 223 -48 262 -43 389 9 219 62 419 167
631 101 202 227 371 407 544 99 95 265 228 321 257 15 8 50 28 77 44 106 66
277 133 408 160 90 20 243 19 321 -1 78 -20 140 -56 246 -141 221 -179 409
-265 643 -295 122 -15 354 1 461 33 192 57 394 195 529 362 168 208 267 466
267 698 -1 279 -119 554 -334 778 -155 160 -426 365 -571 432 -127 58 -245
109 -252 109 -7 0 -118 39 -168 60 -22 9 -107 33 -175 50 -25 6 -58 15 -75 20
-16 5 -77 16 -135 25 -58 8 -133 20 -166 25 -88 14 -336 10 -429 -7z m-235
-93 c0 -5 -12 -10 -27 -10 -22 0 -25 2 -13 10 20 13 40 13 40 0z m-127 -27
c-13 -2 -35 -2 -50 0 -16 2 -5 4 22 4 28 0 40 -2 28 -4z m-128 -29 c-27 -7
-57 -13 -65 -13 -11 1 -10 3 3 6 9 2 17 9 17 14 0 5 21 9 48 8 l47 -1 -50 -14z
m-85 -20 c0 -2 -14 -4 -31 -4 -16 0 -28 4 -25 9 5 8 56 3 56 -5z m-117 -21
c-7 -2 -19 -2 -25 0 -7 3 -2 5 12 5 14 0 19 -2 13 -5z m572 -53 c45 -7 46 -7
14 -9 -20 0 -96 -10 -169 -21 -121 -18 -173 -20 -124 -4 10 3 30 10 44 16 56
23 155 31 235 18z m510 1 c22 -4 -43 -5 -145 -3 -102 2 -192 5 -200 6 -32 7
307 4 345 -3z m232 -37 c-3 -3 -12 -4 -19 -1 -8 3 -5 6 6 6 11 1 17 -2 13 -5z"/>
<path d="M3230 5440 c-13 -8 -12 -10 3 -10 9 0 17 5 17 10 0 12 -1 12 -20 0z"/>
</g>
</svg>
